<svg width="397" height="125" viewBox="0 0 397 125" fill="none" xmlns="http://www.w3.org/2000/svg">
<rect x="9" width="9" height="125" fill="white"/>
<rect x="233" y="14" width="9" height="111" fill="white"/>
<rect x="388" width="9" height="125" fill="white"/>
<rect y="7" width="9" height="3" fill="white"/>
<rect x="18" width="370" height="10" fill="white"/>
<rect x="337" y="14" width="51" height="9" fill="white"/>
<rect x="337" y="105" width="51" height="9" fill="white"/>
<rect x="242" y="14" width="47" height="9" fill="white"/>
<rect x="242" y="105" width="47" height="9" fill="white"/>
<rect width="9" height="3" fill="white"/>
<rect y="3" width="3" height="4" fill="white"/>
<rect x="21" y="14" width="9" height="94" fill="white"/>
<rect x="112" y="14" width="9" height="94" fill="white"/>
<path d="M112 98C117.672 100.757 121 104.111 121 107.73C121 117.119 98.6142 124.73 71 124.73C43.3858 124.73 21 117.119 21 107.73C21 104.111 24.3283 100.757 30 98V104.73H30.0361C30.0147 104.896 30 105.063 30 105.23C30 112.134 48.3563 117.73 71 117.73C93.6437 117.73 112 112.134 112 105.23C112 105.063 111.985 104.896 111.964 104.73H112V98Z" fill="white"/>
<rect x="133" y="105" width="51" height="9" fill="white"/>
<rect x="124" y="14" width="9" height="111" fill="white"/>
<rect x="133" y="14" width="51" height="9" fill="white"/>
<path d="M183.5 14C209.181 14 230 36.3858 230 64C230 91.6142 209.181 114 183.5 114C173.6 114 164.424 110.671 156.883 105H181V104.952C203.267 103.933 221 85.9892 221 64C221 42.0108 203.267 24.066 181 23.0469V23H156.883C164.424 17.3292 173.6 14 183.5 14Z" fill="white"/>
<path d="M336.5 14C310.819 14 290 36.3858 290 64C290 91.6142 310.819 114 336.5 114C346.4 114 355.576 110.671 363.117 105H339V104.952C316.733 103.933 299 85.9892 299 64C299 42.0108 316.733 24.066 339 23.0469V23H363.117C355.576 17.3292 346.4 14 336.5 14Z" fill="white"/>
<path d="M183.5 105C206.626 105 225.437 113.909 225.987 125H215.104C210.117 118.613 195.838 114 179 114H148.313C155.958 108.569 168.865 105 183.5 105Z" fill="white"/>
<path d="M337.487 105C314.362 105 295.55 113.909 295 125H305.883C310.87 118.613 325.149 114 341.987 114H372.674C365.029 108.569 352.122 105 337.487 105Z" fill="white"/>
</svg>
